<svg id="Слой_1" data-name="Слой 1" xmlns="http://www.w3.org/2000/svg" xmlns:xlink="http://www.w3.org/1999/xlink" viewBox="0 0 493.36 141.7">
  <defs>
    <style>
      .cls-1 {
        fill: none;
      }

      .cls-2 {
        isolation: isolate;
      }

      .cls-3 {
        clip-path: url(#clip-path);
      }

      .cls-4 {
        fill: #052c5b;
      }
    </style>
    <clipPath id="clip-path">
      <rect class="cls-1" x="9.96" y="6.85" width="468.93" height="117.24"/>
    </clipPath>
  </defs>
  <g class="cls-2">
    <g class="cls-3">
      <path class="cls-4" d="M142,120.11v-4.67h-4.28v4.67h-3V109h3v4H142v-4h3v11.1Zm13,0V112.6l-4,7.51h-3.47V109h2.93v7.51l4-7.51h3.46v11.1Zm12.91,0V112.6l-4,7.51H160.5V109h2.93v7.51l4-7.51h3.46v11.1Zm12.48,0h-.86v-11h1.38l4.22,10,4.19-10h1.38v11h-.86V109.87h-.05l-4.22,10.24h-.9l-4.24-10.24h0Zm20.74-9.9h0l-6.82,9.9h-1.06v-11h.87V119h0l6.8-9.94H202v11h-.86Zm11.41,9.9-4.69-5.94-2.41,2.26v3.68h-.86v-11h.86v6.33l6.69-6.33h1.18l-4.84,4.52,5.17,6.5Zm3.08-8.39a4.05,4.05,0,0,1,4.1-2.92c3,0,4.93,2.29,4.93,5.86s-1.95,5.84-4.9,5.84a4,4,0,0,1-4.09-2.89v6.48h-.86v-15h.82Zm0,3c0,2.56,1.18,5.07,4.08,5.07,2.46,0,4.05-2,4.05-5.1s-1.57-5.13-4.07-5.13-4.06,1.91-4.06,5.16m20.85,0c0,3.53-2,5.77-5.1,5.77s-5.12-2.28-5.12-5.83,2-5.83,5.14-5.83,5.08,2.3,5.08,5.89m-9.34-.06c0,3.1,1.66,5.08,4.26,5.08s4.17-2,4.17-5-1.65-5.13-4.19-5.13-4.24,2-4.24,5.07m15.49,5.83a4.43,4.43,0,0,1-4.67-4h.86a3.69,3.69,0,0,0,3.83,3.27c2.48,0,4.11-2,4.16-5H240.9V114h5.89c-.21-2.74-1.85-4.46-4.28-4.46a3.36,3.36,0,0,0-3.57,2.8h-.88c.34-2.21,2-3.53,4.47-3.53,3.15,0,5.17,2.3,5.17,5.87,0,3.16-1.7,5.79-5.06,5.79m14.59-10.58h-5.14l-.22,5.89c-.1,3.18-1.05,4.58-2.56,4.58a4.37,4.37,0,0,1-1.22-.21v-.78a2.91,2.91,0,0,0,1.2.24c1.16,0,1.68-1.59,1.77-3.91l.23-6.57h6.8v11h-.86Zm7.92,10.62c-3,0-5-2.26-5-5.76s2-5.92,5-5.92c3.27,0,4.82,2.67,4.82,5.68v.3H261c0,2.54,1.23,5,4.13,5a3.75,3.75,0,0,0,3.83-3.38h.86a4.58,4.58,0,0,1-4.71,4.11m0-10.9c-2.71,0-3.87,2.09-4.11,4.45h8c0-2.23-1.27-4.45-3.94-4.45m14.78,10.54-4.69-5.94-2.41,2.26v3.68H272v-11h.86v6.33l6.69-6.33h1.19l-4.84,4.52,5.16,6.5Zm6.14,0h-.87V109.85H281v-.76h9.21v.76h-4.17Zm6.65-8.39a4,4,0,0,1,4.1-2.92c3,0,4.93,2.29,4.93,5.86s-2,5.83-4.91,5.83a4,4,0,0,1-4.08-2.88v6.48h-.86v-15h.82Zm0,3c0,2.56,1.18,5.07,4.08,5.07,2.45,0,4.05-2,4.05-5.1s-1.57-5.14-4.07-5.14-4.06,1.92-4.06,5.17m20.85,0c0,3.53-2,5.77-5.1,5.77s-5.13-2.28-5.13-5.83,2.05-5.83,5.15-5.83,5.08,2.3,5.08,5.89m-9.34-.06c0,3.1,1.65,5.08,4.26,5.08s4.17-2,4.17-5-1.66-5.14-4.19-5.14-4.24,2-4.24,5.08m19.25,0h-7v5.49h-.86v-11h.86v4.8h7v-4.8h.86v11h-.86Zm11.33,0h-7v5.49h-.86v-11h.86v4.8h7v-4.8h.85v11h-.85Zm13.1,0c0,3.53-2,5.77-5.1,5.77s-5.12-2.28-5.12-5.83,2-5.83,5.14-5.83,5.08,2.3,5.08,5.89m-9.34-.06c0,3.1,1.66,5.08,4.26,5.08s4.17-2,4.17-5-1.65-5.13-4.19-5.13-4.24,2-4.24,5.07m19.26-4.39h0l-6.83,9.9h-1.05v-11h.86V119h0l6.8-9.94h1.08v11h-.86Zm-3.44-2.84a2.84,2.84,0,0,1-3-2.58h.71a2.2,2.2,0,0,0,2.27,1.87,2.18,2.18,0,0,0,2.14-1.87h.71a3,3,0,0,1-2.82,2.58M376.91,120a2.27,2.27,0,0,1-.87.13c-1,0-1.27-.43-1.27-1.85v-.54a4.36,4.36,0,0,1-4.31,2.65c-2.28,0-3.64-1.14-3.64-3.08,0-2.49,2.11-3.2,4.22-3.37,2.89-.24,3.21-.28,3.51-.76a2.54,2.54,0,0,0,.15-1.14c0-1.65-1.1-2.54-3.12-2.54a3,3,0,0,0-3.33,3h-.82c.15-2.39,1.66-3.68,4.24-3.68a4.26,4.26,0,0,1,3.27,1.19,3.58,3.58,0,0,1,.62,2.56v5.69c0,.65,0,1.19.8,1.19a1.74,1.74,0,0,0,.55-.09ZM374,114.28c-1.61.49-3.36.24-4.93.94a2.13,2.13,0,0,0-1.29,2c0,1.48,1.1,2.41,2.86,2.41a3.88,3.88,0,0,0,4.11-3.86v-1.93a1.37,1.37,0,0,1-.75.41m5.19-4.48v10.31h-.86v-11h8.75v11h-.86V109.8Zm11.31,0v10.31h-.86v-11h8.76v11h-.86V109.8Zm20,10.22a2.37,2.37,0,0,1-.89.13c-1,0-1.27-.43-1.27-1.85v-.54a4.33,4.33,0,0,1-4.3,2.65c-2.28,0-3.64-1.14-3.64-3.08,0-2.49,2.11-3.2,4.22-3.37,2.88-.24,3.21-.28,3.51-.76a2.54,2.54,0,0,0,.15-1.14c0-1.65-1.1-2.54-3.12-2.54a3,3,0,0,0-3.34,3H401c.15-2.39,1.65-3.68,4.24-3.68a4.24,4.24,0,0,1,3.26,1.19,3.54,3.54,0,0,1,.63,2.56v5.69c0,.65,0,1.19.8,1.19a1.84,1.84,0,0,0,.56-.09Zm-3-5.74c-1.62.49-3.36.24-4.93.94a2.13,2.13,0,0,0-1.29,2c0,1.48,1.1,2.41,2.86,2.41a3.88,3.88,0,0,0,4.11-3.86v-1.93a1.45,1.45,0,0,1-.75.41m5.27-2.56a4.06,4.06,0,0,1,4.11-2.92c3,0,4.92,2.29,4.92,5.86s-1.95,5.83-4.9,5.83a4,4,0,0,1-4.09-2.88v6.48H412v-15h.82Zm0,3c0,2.56,1.18,5.07,4.09,5.07,2.45,0,4-2,4-5.1s-1.57-5.14-4.06-5.14-4.07,1.92-4.07,5.17m20.7,5.33a2.32,2.32,0,0,1-.88.13c-1,0-1.27-.43-1.27-1.85v-.54a4.34,4.34,0,0,1-4.3,2.65c-2.29,0-3.64-1.14-3.64-3.08,0-2.49,2.11-3.2,4.22-3.37,2.88-.24,3.2-.28,3.5-.76a2.54,2.54,0,0,0,.15-1.14c0-1.65-1.09-2.54-3.12-2.54a3,3,0,0,0-3.33,3H424c.15-2.39,1.66-3.68,4.24-3.68a4.26,4.26,0,0,1,3.27,1.19,3.53,3.53,0,0,1,.62,2.56v5.69c0,.65,0,1.19.8,1.19a1.8,1.8,0,0,0,.56-.09Zm-2.95-5.74c-1.61.49-3.35.24-4.93.94a2.14,2.14,0,0,0-1.29,2c0,1.48,1.1,2.41,2.87,2.41a3.88,3.88,0,0,0,4.11-3.86v-1.93a1.44,1.44,0,0,1-.76.41m8.33,5.83H438V109.85h-4.17v-.76H443v.76h-4.17Zm9.36,1.14c-.64,1.68-1,2.81-3,2.81-.2,0-.65,0-.84,0v-.77a3.41,3.41,0,0,0,.71.06,1.93,1.93,0,0,0,2-1.44s.52-1.18.75-1.78l-4.67-11h1l3.63,8.63c.17.41.21.54.49,1.38.26-.78.37-1.12.52-1.49l3.27-8.52H453Zm7-9.53a4.06,4.06,0,0,1,4.11-2.92c3,0,4.93,2.29,4.93,5.86s-1.95,5.83-4.9,5.83a4,4,0,0,1-4.09-2.88v6.48h-.86v-15h.81Zm0,3c0,2.56,1.19,5.07,4.09,5.07,2.46,0,4.05-2,4.05-5.1s-1.57-5.14-4.07-5.14-4.07,1.92-4.07,5.17m11.13,5.42v-11h.88v4.39h3.29c3.32,0,4.16,1.59,4.16,3.18,0,2.26-1.57,3.45-3.79,3.45Zm.88-5.88v5.13h3.53c1.89,0,3-1.08,3-2.7,0-1.87-1.74-2.43-3.46-2.43Zm9.47-5.14h.86v11h-.86Z"/>
      <path class="cls-4" d="M170.94,84.4a2.59,2.59,0,0,0,2.6-2.55V48.17A2.54,2.54,0,0,0,171,45.62H135.93a2.49,2.49,0,0,0-2.49,2.55V81.85A2.54,2.54,0,0,0,136,84.4h5.09a2.58,2.58,0,0,0,2.54-2.55V53.26h19.75V81.85a2.58,2.58,0,0,0,2.55,2.55Zm30.37-31.14c5.31,0,9.24,1.1,9.24,7.44s-3.93,7.44-9.24,7.44h-9.84V53.26Zm-17.53-7.64a2.49,2.49,0,0,0-2.49,2.55V81.86a2.57,2.57,0,0,0,2.54,2.54h5.09a2.54,2.54,0,0,0,2.55-2.54V75.77h12.94c10.29,0,16.32-4.65,16.32-15.07s-6-15.08-16.32-15.08Zm61.45,6.53c8.3,0,11.56,4.59,11.56,12.89s-3.26,12.89-11.56,12.89S233.67,73.34,233.67,65s3.26-12.89,11.56-12.89M223.49,65c0,14.38,7.91,20.19,21.74,20.19S267,79.42,267,65s-7.91-20.19-21.74-20.19S223.49,50.66,223.49,65m49,16.86a2.53,2.53,0,0,0,2.55,2.5h5.09a2.53,2.53,0,0,0,2.54-2.5V53.26h18.48a2.5,2.5,0,0,0,2.54-2.55V48.17a2.5,2.5,0,0,0-2.54-2.55H275.05a2.51,2.51,0,0,0-2.55,2.55Zm55.65-28.64c5.31,0,9.24,1.1,9.24,7.44s-3.93,7.44-9.24,7.44h-9.84V53.26Zm-17.53-7.64a2.49,2.49,0,0,0-2.49,2.55V81.86a2.57,2.57,0,0,0,2.54,2.54h5.09a2.54,2.54,0,0,0,2.55-2.54V75.77h12.94c10.29,0,16.32-4.65,16.32-15.07s-6-15.08-16.32-15.08Zm75.61,0H355.09a2.53,2.53,0,0,0-2.54,2.49V81.8a2.54,2.54,0,0,0,2.54,2.6h31a2.54,2.54,0,0,0,2.54-2.54v-2.6a2.48,2.48,0,0,0-2.49-2.49H362.73v-8H383a2.57,2.57,0,0,0,2.55-2.54V63.71A2.57,2.57,0,0,0,383,61.17H362.73V53.26h23.5a2.54,2.54,0,0,0,2.55-2.55V48.17a2.54,2.54,0,0,0-2.55-2.55M391.55,65c0,13.44,6.8,19.58,20,19.58h6.58c7.53,0,15.55-4,15.55-11.89a2.8,2.8,0,0,0-2.77-3h-3.21c-1.54,0-2.82.72-3.87,3A6.86,6.86,0,0,1,417.21,77h-5.36c-8,0-10.13-2.93-10.13-11.95s2.16-12,10.13-12h4.81a6.86,6.86,0,0,1,6.64,4.26c1.05,2.27,2.32,3,3.87,3h3.21a2.8,2.8,0,0,0,2.77-3c0-7.85-8-11.89-15.55-11.89h-6c-13.22,0-20,6.14-20,19.58m45.19,0c0,13.44,6.8,19.58,20,19.58h6.58c7.52,0,15.54-4,15.54-11.89a2.8,2.8,0,0,0-2.76-3h-3.21c-1.55,0-2.82.72-3.88,3A6.84,6.84,0,0,1,462.41,77H457c-8,0-10.12-2.93-10.12-11.95s2.15-12,10.12-12h4.82a6.86,6.86,0,0,1,6.63,4.26c1.05,2.27,2.33,3,3.87,3h3.21a2.8,2.8,0,0,0,2.77-3c0-7.85-8-11.89-15.55-11.89h-6c-13.23,0-20,6.14-20,19.58"/>
      <path class="cls-4" d="M38.23,62.1,84.82,41.75V13.14a57.57,57.57,0,0,0-15.3-5.25V41.75L33.33,62.1Zm69.25-25.76V33.63A58.5,58.5,0,0,0,92.17,17.58V41.75L46.65,62.1h4.9l55.93-20.35ZM39.52,10a57.9,57.9,0,0,0-15.31,8V41.75L10,62.1h4.9L39.52,41.75Zm7.34,31.73L21,62.1h4.9L62.17,41.75V7c-1.21-.07-2.44-.11-3.67-.11A58.69,58.69,0,0,0,46.86,8ZM38.23,67.93,84.82,88.28v28.61a57.55,57.55,0,0,1-15.3,5.24V88.28L33.33,67.93Zm69.25,25.75v2.71a58.4,58.4,0,0,1-15.31,16.06V88.28L46.65,67.93h4.9l55.93,20.35ZM39.52,120a58.19,58.19,0,0,1-15.31-8V88.28L10,67.93h4.9L39.52,88.28Zm7.34-31.73L21,67.93h4.9L62.17,88.28v34.78c-1.21.08-2.44.12-3.67.12A58.69,58.69,0,0,1,46.86,122Z"/>
    </g>
  </g>
</svg>
